<?xml version="1.0" encoding="UTF-8"?>
<svg version="1.1" viewBox="0 0 2000 2000" width="500" height="500" xmlns="http://www.w3.org/2000/svg">
<path transform="translate(588,550)" d="m0 0h10l12 3 11 8 6 8 5 12 12 42 15 52 7 26 10 35 11 38 10 35 15 53 17 58 17 59 5 16 2 4 15 1 13 4 9 7 5 6 6 12 1 7 42-11 18-4h14l14 3 12 4 13 7 13 11 11 14 8 15 7 20 4 3 10 5 7 8 4 9v15l-5 10-4 6 7 25 11 34 10 32 12 35 4 10 6-1h19l33 11 40 15 57 21 29 11 20 7 10 4-17-32-13-23-17-32-9-16-13-24-12-22-12-23-1-4 1-13 4-10 9-8 15-9 1-2-29-3-36-4-68-7-23-2-14-3-7-4-6-7-1-4v-14l3-36 3-26 4-51 4-33 3-37 4-8 9-9 8-3h17l42 4 30 4 7 3 7 8 8 16 1 4 28 2 38 4 48 4 21 3 9 4 7 8 3 7 1 9 7 2 6 5 6 10v11l-7 24-12 36-17 52-5 15 23-12 22-12 27-14 22-12 22-11 6-2h13l6 3 8 8 2 3 11-1 12 4 8 9 5 12 12 42 9 33 13 47 1 4v7l-4 10-6 7-16 9-35 18-19 10-25 13-36 19-16 8-37 19-22 12-15 8 4 3 20 8 19 7 31 11 29 11 15 6 9 6 7 8 23 34 9 14 1 6h-335l-15-2-15-4-16-8-14-10-14-14-9-14-7-15-11-33-10-22-3-2 4 34v5l-5 3-27 8-27 7h-7l-9-24-2-6-2-1-1 24-2 10-4 3-51 12-48 10-35 6-35 5-31 3-6-1-1-1-1-25-4 4-5 10-8 12-4 3-13 2h-39l-13-2-4-3 1-6 4-12 4-16 1-6-13 18-11 12-10 7h-14l-16-5-12-5-19-10-13-10-4-4 1-4 1-1 26-2 14-4 11-7 9-8 7-11 7-15 6-22 2-12 1-11v-32l-1-19-1-5-12-6-7-8-4-10-1-11 3-10 5-9-4-17-1-6v-22l4-17 6-14 8-11 9-10 12-9 17-8 32-9 17-4-3-12-1-14 5-13 8-10 10-7v-9l-5-18-7-24-8-28-12-41-14-48-11-37-13-44-14-47-15-50-14-46-9-31-2-12 4-14 7-11 8-7 11-5z" fill="#525456"/>
<path transform="translate(588,550)" d="m0 0h10l12 3 11 8 6 8 5 12 12 42 15 52 7 26 10 35 11 38 10 35 15 53 17 58 17 59 5 16 2 4 15 1 13 4 9 7 5 6 6 12 1 7 42-11 18-4h14l14 3 12 4 13 7 13 11 11 14 8 15 6 17v5l-1 1 1 4h-2l-2 4-4 4-97 27-21 6-25 7-48 13-82 23-21 6-30 8-31 8-22 6-7 4-2 7 1 10 4 8 6 5h8l20-5 19-6 26-7 19-5 18-5 10-2 22-4h4v-2l5-2 23-5 7-3h9l5-2h9v2l-17 5-15 5-17 4-3 2-10 3-7 3-29 8-21 6-9 2 3 20v10l-3 2-5-1-2-6-2-21-22 5-23 6-9 2 3 33v16l-3 32-3 14-8 22-10 16-6 7-8 7-10 7-21 7h-2l3 3 21 10 22 7 5-1 7-6 1-2h2l2-4 11-15 10-17 8-18 6-15 1-1h5l2 2v12l-5 25-6 26-5 16v3l9 1h44l2-5 15-29 8-18 3-6 6-1 2 2v12l-2 42 28-3 54-8 36-7 44-10 30-7 2-4 2-63 2-1v53l3-2 3 3v10l-2 10-4 3-51 12-48 10-35 6-35 5-31 3-6-1-1-1-1-25-4 4-5 10-8 12-4 3-13 2h-39l-13-2-4-3 1-6 4-12 4-16 1-6-13 18-11 12-10 7h-14l-16-5-12-5-19-10-13-10-4-4 1-4 1-1 26-2 14-4 11-7 9-8 7-11 7-15 6-22 2-12 1-11v-32l-1-19-1-5-12-6-7-8-4-10-1-11 3-10 5-9-4-17-1-6v-22l4-17 6-14 8-11 9-10 12-9 17-8 32-9 17-4-3-12-1-14 5-13 8-10 10-7v-9l-5-18-7-24-8-28-12-41-14-48-11-37-13-44-14-47-15-50-14-46-9-31-2-12 4-14 7-11 8-7 11-5z" fill="#515355"/>
<path transform="translate(955,1154)" d="m0 0 5 1 3 8 7 22 6 20 4 11 4 13 9 26 35 105v8l-27 8h-5l-10-19-7-16-4-9-15-33-2-2h-5v8l5 26 6 33 2 12v9l-6 3-35 9-9 1-5-12-12-37-4-10-5-1-1 1-2 63-3 5-30 7-53 12-40 7-49 7-9 1h-11v-26l1-16v-12l-5-1-3 3-5 12-14 29-8 14-2 1h-42l-9-1-1-4 7-23 8-38 1-6v-12l-1-1h-5l-9 22-8 16-7 12-12 16-2 3h-2l-2 4-8 6-10-2-17-6-21-10-1-3 23-8 10-7 9-8 10-14 6-12 7-20 3-20 2-23v-16l-2-23v-10l9-3 35-9 10-1 4 25v2l7-1v-10l-2-20 9-3 58-16 24-7 25-7 15-4 9-3 24-6 26-7 13-4 39-10 7-2 5 1 3 10 4 12 4 6 5-1-1-7-6-18v-6l7-3 17-5 19-5z" fill="#F8D9D3"/>
<path transform="translate(1202,659)" d="m0 0h17l13 1 35 1 23 2 10 5 7 10 7 13 7 2 76 4 48 2 12 2 8 7 6 12 2 7 10 5 4 5 4 7 1 8-6 28-7 26-13 48-6 23-6 16-6 7-11 6h-30l-28-2-89-4-71-4-21-1-10-2-8-6-5-7-1-4v-52l3-85 3-52 3-12 4-7 7-6z" fill="#F8D9D4"/>
<path transform="translate(1423,1080)" d="m0 0 8 1 4 4 4 8 10 35 6 20 5 20 4 12 4 15 5 17 2 9v10l-4 6-5 4-23 12-27 14-12 7-16 8-33 17-19 10-26 13-19 10-23 12-11 6-11 4-7-3-6-9-5-15-5-17-11-37-7-23-3-10-6-19-2-7v-9l4-8 6-5 25-13 33-18 12-6 22-12 12-6 16-9 23-11 15-8 16-8 29-15 10-5z" fill="#F8D9D4"/>
<path transform="translate(1041,954)" d="m0 0h16l60 5 36 4 33 2 52 6 38 2 12 3 5 5 1 3v12l-5 17-24 72-9 29-2 3-5-1-16-7h-8l-16 7-24 13h-13l-53-6-42-4-46-5-31-3-5-2-5-6v-8l9-31 12-39 8-28 7-24 3-9 6-7z" fill="#F8D9D4"/>
<path transform="translate(1028,1296)" d="m0 0 15 2 15 4 22 8 16 6 25 9 27 10 24 9 19 7 21 8 64 23 16 6 15 6 20 7 31 11 12 6 10 10 7 11 6 8 11 16v3l-132 1h-185l-17-2-13-5-12-6-11-8-12-12-7-8-8-16-7-20 1-4 9-4 24-7 5-2-1-9-15-45-4-13v-7z" fill="#ddd"/>
<path transform="translate(860,1032)" d="m0 0h22l15 4 12 7 9 7 10 11 8 14 6 14 2 10-9 4-25 7-36 10-28 8-19 5-65 18-90 25-28 8-74 19h-4l-3-15-1-9v-13l3-18 5-12 10-14 8-8 13-8 15-6 40-11 41-12 52-15 42-12 25-7 24-7z" fill="#F7B8B3"/>
<path transform="translate(589,560)" d="m0 0h10l10 4 7 7 5 10 6 19 8 31 17 58 16 57 14 48 15 53 17 59 7 23 5 19 8 28 7 24-1 3-32 9-17 5h-4l-9-33-12-41-8-27-7-26-7-24-14-47-7-25-9-28-19-66-8-26-12-41-5-15-5-19-1-14 4-11 7-7z" fill="#E1BD9C"/>
<path transform="translate(1202,659)" d="m0 0h17l13 1 35 1 23 2 10 5 7 10 7 13 7 2 76 4 48 2 12 2 8 7 6 12 2 7 10 5 4 5 4 7 1 8-6 28-7 26-13 48-6 23-6 16-6 7-11 6h-30l-28-2-89-4-71-4-21-1-10-2-8-6-5-7-1-4v-52l3-85 3-52 3-12 4-7 7-6zm29 67-12 6-4 7-8 32-5 21-18 72v14l7 7 3 1 14 1 45 2 174 9h7l7-3 5-6 5-16 9-34 8-29 12-44 1-6v-17l-4-5-6-2-80-4-90-3-64-3z" fill="#535457"/>
<path transform="translate(682,1021)" d="m0 0 1 4h-2l-2 5h-3l-1-1-2 4-5 2-3 9-2 7v13l2 11 9 1 1-3 32-9 10-3 6 1 8-3 13-2v-2l17-4h7l3-1 3 3-4 2-15 4-8 3-8 4-97 28-26 7-19 8-11 8-9 10-7 11-4 10-3 18v13l3 19v5l66-17 30-8 36-10 23-7 23-6 39-11 30-8 28-8 30-8 32-9 25-7 10-3 7-1v-6l3 3 1-3-4-2-1-5-2-5-2-7-3-5-8-13-1-3-2-1v-2h-2l-1-3-8-2-3-3-9-5v-2l-6-1v-4l1-2 4-1 13 7 13 11 11 14 8 15 6 17v5l-1 1 1 4h-2l-2 4-4 4-97 27-21 6-25 7-48 13-82 23-21 6-30 8-31 8-22 6-7 4-2 7 1 10 4 8 6 5h8l20-5 19-6 26-7 19-5 18-5 10-2 22-4h4v-2l5-2 23-5 7-3h9l5-2h9v2l-17 5-15 5-17 4-3 2-10 3-7 3-29 8-21 6-9 2 3 20v10l-3 2-5-1-2-6-2-21-22 5-23 6-9 2 3 33v16l-3 32-3 14-8 22-10 16-6 7-8 7-10 7-21 7h-2l3 3 21 10 22 7 5-1 7-6 1-2h2l2-4 11-15 10-17 8-18 6-15 1-1h5l2 2v12l-5 25-6 26-5 16v3l9 1h44l2-5 15-29 8-18 3-6 6-1 2 2v12l-2 42 28-3 54-8 36-7 44-10 30-7 2-4 2-63 2-1v53l3-2 3 3v10l-2 10-4 3-51 12-48 10-35 6-35 5-31 3-6-1-1-1-1-25-4 4-5 10-8 12-4 3-13 2h-39l-13-2-4-3 1-6 4-12 4-16 1-6-13 18-11 12-10 7h-14l-16-5-12-5-19-10-13-10-4-4 1-4 1-1 26-2 14-4 11-7 9-8 7-11 7-15 6-22 2-12 1-11v-32l-1-19-1-5-12-6-7-8-4-10-1-11 3-10 5-9-4-17-1-6v-22l4-17 6-14 8-11 9-10 12-9 17-8 32-9 17-4-3-12-1-14 5-13 8-10 10-7z" fill="#525456"/>
<path transform="translate(953,1107)" d="m0 0 5 1 7 6 4 8 1 3v10l-1 2h-2l-3 6-26 7-18 5-22 6-30 8-19 6-27 7-20 5-21 6-25 7-24 7-45 12-23 6-13 4-26 7-27 8-20 5h-8l-7-6-4-8-1-10 2-7 8-5 22-6 23-6 30-8 22-6 32-9 25-7 122-34 51-14 39-11z" fill="#CEDCE3"/>
<path transform="translate(1388,1067)" d="m0 0h9l5 5 2 5-9 5-32 17-19 10-16 8-38 20-12 7-10 4-14 8-17 9-12 6-19 10-10 6-4 2-7 14v11l8 26 8 27 6 21-1 4-6-9-8-14-13-23-15-28-7-12-8-16-5-11v-13l3-5 13-9 9-5 22-12 27-14 9-3h7l10 5 12 8h7l17-8 19-10 26-14 16-8 22-12 21-11z" fill="#F6B8B2"/>
<path transform="translate(1208,668)" d="m0 0 48 2 31 2 6 2 7 10 4 8 7 9 7 2 55 3 76 2 5 2 4 6 2 9-1 1-123-4-52-2-28-2h-30l-9 5-5 5-4 6-6 20-7 30-7 28-2 4-2-3 1-34 5-92 2-9 4-5 6-4z" fill="#F6B8B2"/>
<path transform="translate(1021,895)" d="m0 0h17l30 4 34 3 7 2 8 14 7 13 5 2 37 5 73 6 28 4 4 4 3 8-1 4h-11l-63-6-49-4-40-4-56-5h-14l-11 5-6 7-5 12-16 55-4 10-2-1v-14l2-26 5-51 2-25 4-12 6-7z" fill="#F6B8B2"/>
<path transform="translate(756,1010)" d="m0 0h13l8 3 8 7 6 10 2 5-1 5-7 3-15 4-29 8-62 18-11 2-2-1-2-7v-15l4-10 9-9 10-5 58-16z" fill="#DEDCDB"/>
<path transform="translate(899,1028)" d="m0 0 5 1 11 6 13 11 11 14 8 15 6 17v5l-1 1 1 4h-2l-2 4-4 4-97 27-21 6-25 7-48 13-82 23-21 6-30 8h-8l-16 5-22 5-3-1 8-4 7-1h3v-2l2-2v-1h6l4-1 1-3 6-2 8-3 34-9 43-12 27-8 23-6 39-11 30-8 28-8 30-8 32-9 25-7 10-3 7-1v-6l3 3 1-3-4-2-1-5-2-5-2-7-3-5-8-13-1-3-2-1v-2h-2l-1-3-8-2-3-3-9-5v-2l-6-1v-4l1-2z" fill="#515355"/>
<path transform="translate(889,1338)" d="m0 0 1 2v51l3-2 3 3v10l-2 10-4 3-51 12-48 10-35 6-35 5-31 3-6-1-1-1-1-25-4 4-5 10-8 12-4 3-13 2h-39l-13-2-4-3 1-6 4-12 4 2-1 3 2-1v-4h2l1-5-2-7 4 1 4-4-1 7-5 16v3l9 1h44l2-5 15-29 8-18 3-6 6-1 2 2v12l-2 42 28-3 54-8 36-7 44-10 30-7 2-4 2-63z" fill="#525456"/>
<path transform="translate(682,1021)" d="m0 0 1 4h-2l-2 5h-3l-1-1-2 4-5 2-3 9-2 7v13l2 11 9 1 1-3 32-9 10-3 6 1 8-3 13-2v-2l17-4h7l3-1 3 3-4 2-15 4-8 3-8 4-97 28-26 7-19 8-7 5-5 1-6 5-4 2-2 6-2 3h-2l-1 5-2 1-1 6-4 16v30l2 10 1 8-4-1-4-5-3-12-1-6v-22l4-17 6-14 8-11 9-10 12-9 17-8 32-9 17-4-3-12-1-14 5-13 8-10 10-7z" fill="#505254"/>
<path transform="translate(1188,815)" d="m0 0h1v8l-1 5 1 7-1 11-3 13v19l6 6 3 1 14 1 45 2 154 8 4 1v2l26-1 8-1-2 6-6 3h-30l-28-2-89-4-71-4-21-1-10-2-8-6-5-7-1-4v-14l1-6 1-5v-15l1-11h1v10h2l3-10 3-1 1-6z" fill="#515355"/>
<path transform="translate(818,1258)" d="m0 0h5l3 7v14l-3 11-6 8-9 6-9 3h-7l-13-4-9-6-7-9-2-4v-10l4-3 22-6z" fill="#505254"/>
<path transform="translate(588,550)" d="m0 0h10l12 3 11 8 6 8 5 12 12 42 15 52 7 26 10 35 11 38 3 12-4-1-1-7-3-2v-3h-2v-9h-2l-3-6v-2l-2-1v-5h-2l-2-11-1-7-2-3-1-17-1-7h-2l-1-9-2-6h-1l-1-7-1-4-5-5-3-11-2-8v-3l-2-5-1-3 2-4-4-10v-7l-5-4v-2h2v-6h-2l-6-8-1-7-2-4-1-6-3-2v-4-2h-2l-5-10-1-3h3l-2-3v-3l-6-2-2 2 5 4-6-1-10-3-11 1-6 2-9 6h-3v2l-2 1-2 5-1 6-3 3h-1l-1 9 1 7h-2l-1 4-3-9-1-8 4-14 7-11 8-7 11-5z" fill="#484A4F"/>
<path transform="translate(1375,1164)" d="m0 0h10l6 3 5 5 2 15 11 3 5 2v2l3 1 2 4 1 8-3 9h-2v2l-8 4h-10l-6-4-3-3-2-11-2-4-10-4-6-5-3-6v-9l4-8z" fill="#F6B8B2"/>
<path transform="translate(720,1256)" d="m0 0h10l8 6 2 5v7l-4 10-2 1v3l5 2 6 9 1 5-3 11-7 6-4 2h-9l-5-3-7-7-3-6 1-6 3-6 5-3 2-2-1-4-4-6-3-5v-9l3-5z" fill="#F6B8B2"/>
<path transform="translate(1264,1222)" d="m0 0h10l4 2 6 5 2 4v12l-2 5v6l8 4 3 6v10l-2 4-8 6-3 1h-9l-6-4-4-7v-8l3-8v-5l-6-2-5-6-2-9 3-9 3-2v-2z" fill="#F6B8B2"/>
<path transform="translate(1229,723)" d="m0 0m-1 1m-1 1m-48-16h1l1 69v7l4-2v30l1 2 5-19 7-29 5-21 2-3h4l2-6 4-2 2-4 6-5 3 1v2l-5 3h-2l-2 5-5 18-7 29-20 80h-1l1-9 3-14v-10l-1-4 1-9-2 6-2 1-4 10-3 1v15l-1 9-2 2v-38l3-85z" fill="#565759"/>
<path transform="translate(1187,1028)" d="m0 0 7 1 2 2 4 2 5 8v8l-5 10v4l5 3 2 3 1 7-2 7-5 6-3 1h-8l-7-3-5-10v-7l2-4h2v-6l-5-5-2-5v-13l2-2 2-4z" fill="#F6B8B2"/>
<path transform="translate(921,1107)" d="m0 0 4 1-4 2h-3l1 2 2 2-9 4-10 1 3-3h6v-3l-7 2-7 1-6 3 3 3-16 5-15 4-17 5-8 1-10 4-16 4-14 5-22 5-9 3-16 4-9 3-10 2-17 6-18 4-8 3-20 5-13 4h-5l-1-5 6-2h4v-2l7-2 8 1 3-1v-3h11v-1l6-1-2-2h7l8-2h2v-2l5-1h2 3l1-2 1-1 12-2h4v-2l8-2 4-2 16-3 7-2h2v2h2v-2l5-3h8l5-3v-1l10-3 2-1 10-1 6-3 13-4 7-1 7 2 1-5 7-1 5 1 3-4 10-1v-2l13-4h3v-2l15-4z" fill="#42454A"/>
<path transform="translate(1095,1019)" d="m0 0 4 2 5 2 4 5 1 3v10l-4 8-8 6v8l-3 7-7 7-9 1-5-3-6-9 1-9 1-2h2v-2l9-5-1-8v-10l2-4 6-1v-2l-2-1 4-2 6 1z" fill="#F6B8B3"/>
<path transform="translate(1280,790)" d="m0 0 10 1 7 6 2 6 1 1v6l-1 3-4 6-7 6 1 11-3 8-8 5h-6l-8-5-3-5v-7l3-6 2-2h3v-2h3l-1-5-2-3-1-10 2-3 1-4 7-6z" fill="#F6B8B3"/>
<path transform="translate(594,596)" d="m0 0h15l8 6 4 6 1 3v11l-5 9-6 5-8 2-10-1-8-6-4-9v-13l4-8 6-4z" fill="#505254"/>
<path transform="translate(763,1200)" d="m0 0h11v2l-17 5-15 5-17 4-3 2-10 3-7 3-29 8-21 6-10 2 2 15v15l-3-1-1-2-2-18-2-4v-3l-16 2-10 3h-5v2l-12 3h-6l1-3 7-2 6-3 15-5h7l6-2 2 1-1-3h2l1-3 26-7 18-5 10-2 22-4h4v-2l5-2 23-5 7-3h9z" fill="#4F5153"/>
<path transform="translate(888,1407)" d="m0 0 2 2v6l-51 12-48 10-35 6-35 5-10 1h-17l2-1v-2h2v-2l8-2 14-2 6-1 20-1 1-1 9-1 7 1v-2l8-2 14-3h9l1-1 11-1 3-1 2 1v-2l5-2 13-3 14-3h5l1-2 14-3 24-5z" fill="#46494D"/>
<path transform="translate(588,1112)" d="m0 0m-2 1h2l-2 4-9 10-7 11-4 10-3 18v13l3 19v5l39-10 4 1-6 2-3 3-6 1-4 2v2l-10 2-7 3 20-4 14-4 9-2v2l-22 6-23 6-10 5-2 7 1 10 4 8 6 5h8l20-5 19-6 15-4h3l-1 5-5 1-4 1-9 1-12 4-6 3h-6l-2 4 18-3v-2l15-4 16-1 3 7 2 18 3 3-2-22v-8l2 4 2 16v10l-3 2-5-1-2-6-2-21-22 5-23 6-10 2-1-4-5 1-5-1v-2l-8-2-6-13v-15l4-6v-3h2v-2l-7 3-3 2 2-5 2-6h3v2l4 1-2-8-2-13v-27l4-16 2-7h2l1-5 4-4 1-5 3-3 4-1z" fill="#525355"/>
<path transform="translate(645,1082)" d="m0 0 3 1 1 5-9-1-1 4-7 3-2-1-7 1-7 3-7 5-16 8-9 6-5 4-4 2-2 6-2 3h-2l-1 5-2 1-1 6-4 16v30l2 10 1 8-4-1-4-5-3-12-1-6v-22l4-17 6-14 8-11 9-10 12-9 17-8 32-9z" fill="#46494D"/>
<path transform="translate(1374,798)" d="m0 0h8l6 4 4 5 1 9-4 7-3 5 4 2 6 5 3 4v6l-5 7-6 3-9-1-5-4-3-7 1-8h2l2-7-9-6-2-4v-11l3-6z" fill="#F7B8B3"/>
<path transform="translate(858,1247)" d="m0 0h10l7 3v2l5 2 5 8v8l-3 6-11 8-2 1h-8l-6-3-6-7-2-4v-11l3-6z" fill="#F7B8B3"/>
<path transform="translate(1385,1058)" d="m0 0h13l6 3 8 8 2 3 11-1 12 4 8 9 5 12 12 42 9 33 5 18v5h-2l-3-8-1-5-3-1v-3l-3-14v-3h-2l-1-7-2-4v-2l-3-6-1-9-4-7-7-23-3-6-1-9-1-5-4-2-4-4-7 2h-3-10l-1 3-3-1-1 3-5-1 1-2h2l1-8 1-1-3-2v-4l-7 1-4-2h-10l-2 5-6 2-1-2h-3l3-6z" fill="#494B4F"/>
<path transform="translate(1219,665)" d="m0 0 23 1 15 1 16 2 14 2v1h-14l-59-3-12 1-7 5-3 7-1 5-5 92-2 5-3 1-1-11v-87h1v11l1-2 1-6h2l1-7 5-8h2v-3l5-3 6-3z" fill="#515355"/>
<path transform="translate(862,1021)" d="m0 0h14l14 3 10 3v3l-2 1-1 3 6 2 1 2 10 5 5 3 5 1v4h2v2l3 1 4 8 5 8 4 7 2 9 2 4 1 3 2 1v5l-3-3-1 5-4 1 2-3-2-10-7-16-7-12-12-13-16-10-13-4-4-1h-22l-23 5-13 4-4-1 4-3 8-3v-2h3l1-2v-3l4-2z" fill="#555658"/>
<path transform="translate(1286,894)" d="m0 0 25 1 2 1h32l66 2h26l8-1-2 6-6 3h-30l-28-2-89-4-3-1z" fill="#4B4C51"/>
<path transform="translate(1436,605)" d="m0 0 5 1v6l-10 15 5 2 7 4 4 5-1 5-5 1-10-5-3-2h-4l-8 12-2 2-5-1-1-5 7-15-11-8-4-4 2-5 5-1 11 6 5 2 10-13z" fill="#4C4D52"/>
<path transform="translate(1068,775)" d="m0 0 5 1 10 10 5-1 10-7h5l2 4-3 5-8 7-4 1 9 13 2 6-3 3-6-2-9-10-5 2-12 7-4-2-1-4 6-7 7-5-3-5-6-9v-5z" fill="#484B4F"/>
<path transform="translate(558,1210)" d="m0 0h5l-1 5-4 6v15l5 10v3l6 1 2 1v2h6l4-1 2 3-2 3 1 18 1 5v26l-2 6v2l-1 3 1 5-2 4-1 6-2 2-2-1 1-18v-32l-1-19-1-5-12-6-7-8-4-10-1-11 3-10 6-4z" fill="#46484D"/>
<path transform="translate(1419,1316)" d="m0 0 5 1 10 13 5-1 8-5 6-1 3 3-2 5-13 10 6 11 1 8-2 2-4-1-7-8-4-6-4 1-9 6-4 1-4-4 2-5 10-7 2-1-1-5-5-8-1-6z" fill="#484B4F"/>
<path transform="translate(713,879)" d="m0 0 5 3 11 38 17 59 5 16 1 6-1 1 2 2-4 3h-6l1-3h2l-4-9-1-5-1-8h-2l-5-12v-12l-3-7-1-9-3-5-3-12 1-7-6-7-3-13v-7-3l-3-4z" fill="#47494E"/>
<path transform="translate(642,624)" d="m0 0 3 3 10 34 11 40 10 35 11 38 3 12-4-1-1-7-3-2v-3h-2v-9h-2l-3-6v-2l-2-1v-5h-2l-2-11-1-7-2-3-1-17-1-7h-2l-1-9-2-6h-1l-1-7-1-4-5-5-3-11-2-8v-3l-2-5-1-3 2-4-4-10z" fill="#484A4F"/>
<path transform="translate(1130,1048)" d="m0 0h11l10 3 8 6 6 9 2 4v11l-3 2h-5l-5-15-5-7-8-3h-10l-9 4-6 11-3 5-5-1-1-1v-7l6-11 5-5 8-4z" fill="#505254"/>
<path transform="translate(1321,818)" d="m0 0h14l10 5 5 4 6 11v11l-3 3-4-1-4-13-4-6-8-4h-9l-8 4-6 10-3 7-5-1-2-5 2-9 6-9 7-5z" fill="#515355"/>
<path transform="translate(811,1270)" d="m0 0 5 1v8l-3 6-5 6-8 4h-12l-9-3-7-7-1-4 6-3 31-7z" fill="#F7B8B3"/>
<path transform="translate(1029,1449)" d="m0 0 7 2 7 4 3 3 19 8 6 2 14 3 7 1 1-1 13-1h71l6 1v1l-5 1-17 1v1h-85l-17-4-13-6-12-7-4-3z" fill="#45484C"/>
<path transform="translate(889,1338)" d="m0 0 1 2v51l3-2 3 3v10l-2 10-4 2-2-6-4 2-21 4-14 3-6 2-9 2-11 2-8 3h-4v2l-16 2-2 1h-8l-14 3-2 1h-6v2l-16 1-3 1-24 1 1-2 19-3 39-6 31-6 44-10 30-7 2-4 2-63z" fill="#515355"/>
<path transform="translate(1339,1213)" d="m0 0 16 1 10 5v2h2l2 4-1 5h-6l-6-5-8-2h-7l-9 3-5 4-3 5-1 4-1 15-1 1h-5l-3-4v-14l4-10 4-5 9-6z" fill="#505254"/>
<path transform="translate(1067,1462)" d="m0 0 9 1 299 1v1h-103v2h-185l-17-2-3-1z" fill="#F0D1CE"/>
<path transform="translate(720,1256)" d="m0 0h10l8 6 2 5v7l-4 8-5 3h-10l-6-4-4-6v-9l3-5z" fill="#505254"/>
<path transform="translate(899,1028)" d="m0 0 5 1 11 6 13 11 11 14 8 15 6 17v5l-1 1 1 4h-2l-2 4-7 3-9 2-2-1 5-4-1-2 10-4v-6l3 3 1-3-4-2-1-5-2-5-2-7-3-5-8-13-1-3-2-1v-2h-2l-1-3-8-2-3-3-9-5v-2l-6-1v-4l1-2z" fill="#45484C"/>
<path transform="translate(992,1111)" d="m0 0 2 1v2l21 1h11l8 1 1 1h8l10 1 28 3 5 1 10 1 17 2v2l-6 2-38-2-38-4-23-2-14-3-4-2v-3h2z" fill="#494B50"/>
<path transform="translate(903,1161)" d="m0 0 7 1-2 4h-2l-1 10-2-4 1-2-14 1-6 2-10 2-8 3-10 3-13 1-4 2h-3v2l-6 2-16 3-15 5-6 1-3-1-2 2-4-1 4-3h2v-2l21-6 6-2 10-2h7l1-3 9-1 5-2h2l7-2h1l7-3 18-4 4-1 4-2 7 1v-3z" fill="#42454A"/>
<path transform="translate(682,1021)" d="m0 0 1 4h-2l-2 5h-3l-1-1-2 4-5 2-3 9-2 7v13l2 11h15l3 1 1-2 1 4-8 1h-6v2l-3 2h-3v2l-5 2-9-1-2 1v-3l-2-1 2-2 8-2-3-12-1-14 5-13 8-10 10-7z" fill="#47494D"/>
<path transform="translate(888,1115)" d="m0 0 4 1-13 4h-3v2l-2 1h-8l-2 4-5 1-4-1-4 1-1 4-8-1-12 3-12 4-1 1-10 1-10 4-3 2-4 2h-8l-5 2v2h-2v-2l-14 4-13 3-6 2h-4v2l-9 2h-7l-1 3h-4l-1 2-2-1h-4v2l-12 3-3 2-5 1-4 1-4-1-1 2v-2h-3v3l-4 2-6-2 1-2 43-12 14-4 24-7 23-6 35-10 19-5 51-14z" fill="#505254"/>
<path transform="translate(1265,1225)" d="m0 0h9l8 6 2 3v9l-4 7-5 3h-9l-6-4-3-5v-10l4-6z" fill="#515355"/>
<path transform="translate(635,1232)" d="m0 0m-78-3h2l2 9 6 8 3 2h8l20-5 19-6 15-4h3l-1 5-5 1-4 1-9 1-12 4-6 3h-6l-2 4 18-3v-2l15-4 16-1 3 7 2 18 3 3-2-22v-8l2 4 2 16v10l-3 2-5-1-2-6-2-21-22 5-23 6-10 2-1-4-5 1-5-1v-2l-8-2-6-13z" fill="#505254"/>
<path transform="translate(1377,1167)" d="m0 0h8l7 4 3 6v8l-3 6-5 4-5 1-7-2-5-6-1-2v-10l3-6z" fill="#515355"/>
<path transform="translate(989,1043)" d="m0 0 3 2 1 2 4-3 2 1 2 2-1 11-5 15-3 11-3 1-1 6-4 3-2 6h-1v-21l2-6 1-18 3-5z" fill="#42454A"/>
<path transform="translate(1193,888)" d="m0 0h30l49 3 10 2 3 3-6 2-3-1h-36l-42-2-2-1z" fill="#46494D"/>
<path transform="translate(1018,886)" d="m0 0h17l20 2v2l20 1 8 1-1 5h-13l-10-2h-13l-10-3-16 1-9 6h-2l-2 5h-2l-1 6-4 1 1-6-3 1 1-4 3-5 8-8z" fill="#4A4B50"/>
<path transform="translate(1091,1022)" d="m0 0 7 1 5 3 4 8-1 7-3 5-3 3-7 1-7-2-4-5-1-2v-9l3-6z" fill="#515355"/>
<path transform="translate(1374,798)" d="m0 0h8l6 4 4 5v7l-6 8-3 2h-7l-6-3-5-6v-8l3-6z" fill="#505254"/>
<path transform="translate(1185,1032)" d="m0 0h8l8 6 2 5-1 7-4 6-4 3h-7l-6-4-4-6v-9l3-5z" fill="#515355"/>
<path transform="translate(953,1107)" d="m0 0 5 1 7 6 4 8 1 3v10l-1 2h-2l-3 6-26 7-18 5-17 5-4-2 17-6 9-2 9-3 17-6 11-3 4-7v-8l-2-7-5-2-5-3-7 1-9 3-10 3-16 5-12 1-1 1h-6l2-2 39-11z" fill="#E3D7D5"/>
<path transform="translate(778 1e3)" d="m0 0 4 1 8 6 5 6 6 12 1 7 23-6 6-2h6l1 3-7 6-10 3-1 1-16 2-4 3-6 1v-5l1-3-2-13-2-7v-2l-4-2-11-9z" fill="#484A4F"/>
<path transform="translate(1280,794)" d="m0 0h7l5 3 5 6v9l-4 6-3 2h-9l-5-3-4-5v-9l6-8z" fill="#505254"/>
<path transform="translate(1398,710)" d="m0 0h42l12 2 3 4 1 7-6 1-29-3-14-1v-1l10-1-2-1v-3l-7 1 1-3-3 1v-2h-8z" fill="#E1BD9C"/>
<path transform="translate(850,1226)" d="m0 0h15l6 3 3 4-2 6h-22l-9 4-4 4-5-1-1-3 2-6 4-5 10-5z" fill="#515355"/>
<path transform="translate(1348,1307)" d="m0 0 4 1-1 3-23 12-37 19-22 12-7 1-2-2 4-4 9-3 5-4 9-4 7-2 2-3 6-2 5-5 9-3 4-3 7-3 16-8z" fill="#484A4F"/>
<path transform="translate(632,1186)" d="m0 0h9l7 2-4 3-14 5-1 2-8 2h-8l-16 5-22 5-3-1 8-4 7-1h3v-2l2-2v-1h6l4-1 1-3 6-2 8-3z" fill="#505254"/>
<path transform="translate(763,1200)" d="m0 0h11v2l-17 5-15 5-17 4-3 2-12 3-9 1-7 2-8 1v-3h4v-3l15-4 11-1v-2l5-2 23-5 7-3h9z" fill="#42454A"/>
<path transform="translate(639,1233)" d="m0 0h7l1 4-1 3v8l1 7v15l-3-1-1-2-2-18-2-4v-3l-16 2-10 3h-5v2l-12 3h-6l1-3 7-2 6-3 15-5h7l6-2 2 1-1-3z" fill="#42454A"/>
<path transform="translate(1152,929)" d="m0 0h25l43 4 5 1v2l14 1 5 1v2l-7-1h-38l-13-2h-10l-8-3-13-1-4-3z" fill="#42454A"/>
<path transform="translate(890,1337)" d="m0 0h4l7 20 2 9-2 1-4-7-2 9 1 12v11l-4-2-3 2v-52z" fill="#42454A"/>
<path transform="translate(1188,815)" d="m0 0h1v8l-1 5 1 7-1 11-4 18-1 1h-9l2-14v-15l1-11h1v10h2l3-10 3-1 1-6z" fill="#42454A"/>
<path transform="translate(971,1388)" d="m0 0h2v2l3-1-2 4-26 8-31 8h-7v-3h3v-2l14-5 21-6 6-2 4-1h9z" fill="#47494E"/>
<path transform="translate(576,1340)" d="m0 0 2 1-2 10-3 6-1 6-3 9h-2l-2 6-4 6-3 3h-2l1 4-4 2-3 4h-2l-3 4v2l-7 1-5 1 1-4 13-9 8-9 9-17 8-24 1 2 2-1z" fill="#46484D"/>
<path transform="translate(599,605)" d="m0 0 6 1 5 4 2 4v6l-4 6-4 2-8-1-5-5-1-8 3-5z" fill="#E0DCDA"/>
<path transform="translate(1175,864)" d="m0 0h9l1 14 6 6 3 1 14 1 1 2-15 1 2 2v3l-8-1-8-6-5-7-1-4v-11z" fill="#555759"/>
<path transform="translate(1383,726)" d="m0 0h42l18 1v2h-2v2h-57l-14-1-3-2z" fill="#42454A"/>
<path transform="translate(889,1338)" d="m0 0 1 2v51l3-2 3 3v10l-2 10-4 2-2-6-4 2-12 2h-6l1-2 17-4 2-4 2-63z" fill="#525456"/>
<path transform="translate(1419,1316)" d="m0 0 5 1 10 13h5v3h-6l-2 3-2 4-7 2v2h-3v7l-4 1-1 2-3-1-1-4 4-5 10-6-1-5-5-8-1-6z" fill="#58595B"/>
<path transform="translate(660,1446)" d="m0 0h2v6l-6 2h-17l-13-1-3-1-15-1 1-2 6-2h43z" fill="#42454A"/>
<path transform="translate(1336,1210)" d="m0 0h17l10 4 5 4 4 6 1 4-3 4-3-1 1-6-1-4h-2v-2l-10-4-16-1-13 5-3 3h-2l-6 12-2 7-1 13-2-2v-14l1-2 1-7 3-5 2-1 2-4 3-1 4-4 3 1 1-3z" fill="#ECC2B1"/>
<path transform="translate(1128,1045)" d="m0 0h13l11 4 6 4 7 8 1 4-3-1-6-8-8-5-8-2h-11l-8 3-6 2-2 4-6 11v7l5 1 4-8h3l-3 6-2 5h-9l-3-7 3-9 6-10 4-4z" fill="#ECC5B6"/>
<path transform="translate(1250,937)" d="m0 0h10l11 3 9 8 4 9v10h-5l-2-5-1-5-2-6-7-4-6-2-3-2v-2l-9-1-2-2z" fill="#484A4F"/>
<path transform="translate(1476,1238)" d="m0 0 3 2-2 4-10 7-26 13-9 5h-4l2-4 3-2v2h2v-3l4-4 8-3 2-1 2 1 1-4 3-2 8-1v-2l4-2h4l2-4z" fill="#46494D"/>
<path transform="translate(645,1240)" d="m0 0 2 4 2 16v10l-3 2-5-1-2-6-2-21-22 5-14 4-3-1 2-2 8-1v-2l15-4 16-1 3 7 2 18 3 3-2-22z" fill="#515355"/>
<path transform="translate(768,1050)" d="m0 0 5 1 1 3-19 5-8 3-6 2h-10l-7-1v-2l14-3 6-1v-2l17-4h7z" fill="#42454A"/>
<path transform="translate(1150,1129)" d="m0 0 8 1 15 1 8 2v2l3 1-7 4-8 4h-2l-1 3h-3l-1-3h2l2-7-11-1-6-4z" fill="#42454A"/>
<path transform="translate(1194,1206)" d="m0 0h1l2 9 3 6 1 4 1 8 2 3 5 12-1 7h2l3 11-1 2h2l3 9-1 5h2l3 9 1 4 2 9-2 2-10-33-7-23-3-10-6-19-2-7z" fill="#EFBEAF"/>
<path transform="translate(1181,707)" d="m0 0h2l1 5v15l-1 2 1 16h-2l1 3v8l1 7v21l-3 1-1-11v-65z" fill="#42454A"/>
<path transform="translate(1406,1276)" d="m0 0 6 1-1 3-31 16-5 3-6-1 3-5 14-7 5-3 8-4 3-1z" fill="#45484D"/>
<path transform="translate(651,1085)" d="m0 0 8 2v2l-39 11-17 6-12 7h-3l8-6 16-8 5-4h5l1-2 8-1 2 1 6-3 1-3h9z" fill="#505254"/>
<path transform="translate(1287,969)" d="m0 0h6l5 4 6 10v11l-7 24-2 4-3-2 3-8 1-1v-8l4-14h-2l-1-8-2-3v-4l-4-1-3-1z" fill="#4A4C51"/>
<path transform="translate(996,1405)" d="m0 0 2 1v2l3 1 3 5-1 2h2l4 7 4 4 3 8 2 2v3l3-1 4 5 1 5-4-1-10-10-9-14-7-15z" fill="#47494E"/>
<path transform="translate(1425,701)" d="m0 0h17l4 1 11-1 8 7 5 9v3h-2l-1 2-5-3-2-5 2-4-7-1-8-3-12-1-3-2-7-1z" fill="#43464B"/>
<path transform="translate(965,1320)" d="m0 0 4 2 5 13-1 6h-2l-2 3h-6l-2-8 1-5-1-10z" fill="#42454A"/>
<path transform="translate(1187,1028)" d="m0 0 7 1 2 2 4 2 5 8v8l-4 8-7 4h-7l-10-6-2-5v-13l2-2 2-4zm-2 4-5 3-3 5v9l4 6 6 4h7l6-5 3-6-1-7-3-5-6-4z" fill="#EAC4B6"/>
<path transform="translate(1324,697)" d="m0 0h38l27 1 1 2-5 1h-50l-10-2z" fill="#42454A"/>
<path transform="translate(984,1203)" d="m0 0 2 1 10 31v5l-3 2-5-10-8-25v-2z" fill="#44474C"/>
<path transform="translate(778 1e3)" d="m0 0 4 1 8 6 5 6 6 12 1 7 3 1h-5l-3 2v-2l-3-1-1-11-2-6v-2l-4-2-11-9z" fill="#4C4E51"/>
<path transform="translate(616,1200)" d="m0 0h4v2l-15 5-6 3-13 2-11 3-10 3-3 3-1 6h-3l2-9 8-5 22-6 23-6z" fill="#E3D8D7"/>
<path transform="translate(1355,892)" d="m0 0h35l29 2 7 1-3 2h-16l-59-3v-1z" fill="#ECBFAC"/>
<path transform="translate(608,1194)" d="m0 0 9 2 1 2-17 6-26 6-3-1 8-4 7-1h3v-2l2-2v-1h6l4-1 1-3z" fill="#42454A"/>
<path transform="translate(1280,790)" d="m0 0 10 1 7 6 2 6 1 1v6l-1 3-4 6-5 4h-8v-1l9-2v-2h2l3-6v-9l-6-7-3-1h-7l-5 5-2 3-1 6h-1v-12l7-6z" fill="#E6C5B1"/>
<path transform="translate(1089,796)" d="m0 0 5 5 6 9 1 4-3 3-6-2-9-10 2-1 1-6z" fill="#525456"/>
<path transform="translate(994,956)" d="m0 0 3 3v2l-1 1 2 1 1 6-3 19v8l-5 7h-1l1-7 1-10-1-9 1-11z" fill="#42454A"/>
<path transform="translate(491,1409)" d="m0 0 11 1 2 1v2l4 1-1 4h2l3 4-3 3-9-3-10-9z" fill="#4A4B50"/>
<path transform="translate(610,1372)" d="m0 0 2 2v3l4 2 1-3v5l-4-1 2 4h-2l-1 3h-1v5l-2 5-2 2v2l-5-1-1 4h-3l2-6 7-17z" fill="#42454A"/>
<path transform="translate(1116,901)" d="m0 0 3 1 8 14 3 7v3l7 2v3h-6l-5-3-5-10v-2h-2l-4-10z" fill="#45484D"/>
<path transform="translate(579,1431)" d="m0 0 3 1-6 7-3 5-5 3h-14l-6-2v-2h4v-2l9-1 9 1v-2h2v-2l5-4h2z" fill="#44464B"/>
<path transform="translate(1431,627)" d="m0 0 5 2 7 4 4 5-1 5-5 1-10-5-3-3 4-2z" fill="#585A5B"/>
<path transform="translate(1227,719)" d="m0 0h13l-1 4-10 1-3 3h-4l-10 10-3 6h-2l1-7 4-6 5-5h3v-2h3v-2h4z" fill="#42454A"/>
<path transform="translate(620,581)" d="m0 0 2 3 6 21 9 33 15 51-1 4-8-26-16-56-5-17-2-8z" fill="#F7B8B3"/>
<path transform="translate(955,1319)" d="m0 0h1l5 30 3 15 1 7v10l-2 2-4-27-4-18v-11h-1v-7z" fill="#EFC1B2"/>
<path transform="translate(1288,1337)" d="m0 0 4 2-2 4-23 12-7-1 4-5 9-3 5-4 9-4z" fill="#45484C"/>
<path transform="translate(727,1010)" d="m0 0h5l1 4-7 3-13 3-5 1-8 3-6 1v-5l8-1 13-4 3-1v-2l7-1 2 1z" fill="#42454A"/>
<path transform="translate(1440,1342)" d="m0 0 3 3 4 7 1 8-2 2-4-1-7-8-3-6 7-2z" fill="#5D5F61"/>
<path transform="translate(1088,1118)" d="m0 0h17l40 4 5 1-2 2h-11l-29-3-19-2z" fill="#E9C4B2"/>
<path transform="translate(594,598)" d="m0 0h14l5 3 4 5 2 6v6l-3 4-2-3-2-10-4-5-5-3-6 2h-2v-2l-2-2z" fill="#42454A"/>
<path transform="translate(600,750)" d="m0 0 3 1-1 4h2l1 4 2 1v7l1 5 3-1 1 3h-2v2l4 1-1 2-1 3 4 6 1 6-5 1-11-38z" fill="#484A4E"/>
<path transform="translate(687,1181)" d="m0 0h4v2l-35 10-9 2-18 5h-6l1-2 19-5 22-6z" fill="#E2D8D7"/>
<path transform="translate(1403,612)" d="m0 0 6 1 4 2 1 5 3 1-2 3v5l-9-5-6-6 2-5z" fill="#505255"/>
<path transform="translate(1194,1354)" d="m0 0 8 1 21 8 28 10v2l-8-1-25-9-10-4-14-5z" fill="#ECD1CE"/>
<path transform="translate(1209,1305)" d="m0 0 5 1 2 1v2l5 2 2 9 1 1v6l-1-2-4-1-5-6v-2l-5-1 1-4v-3z" fill="#42454A"/>
<path transform="translate(1264,1222)" d="m0 0h10l4 2 6 5 2 4v12l-2 3-1-5v-9l-1-3-4-2-4-3h-9l-5 4-2 4-1 7h-1l-1-7 2-6 2-1v-2z" fill="#EBC0AF"/>
<path transform="translate(1232,1177)" d="m0 0h3l-1 3-2 1-8 5-11 6-8 4-5 5-4 5-1-4 6-8 22-12z" fill="#EBC3B3"/>
<path transform="translate(953,1107)" d="m0 0 5 1 7 6 4 8 1 3v10l-1 2h-3l-1-3 1-3v-8l-2-7-5-2-5-3-7 1-5 2-1-3 7-3z" fill="#E3D6D5"/>
<path transform="translate(697,817)" d="m0 0 3 3 7 25v5l-2-1 1-3-3-1-1-5-3-1-1-9-2-1-2-6 2-4z" fill="#44474C"/>
<path transform="translate(1068,775)" d="m0 0 3 1v2l4 3 1 5 3 1 1 3-4 1 1 5-1 2h-2l-1-5-7-9-1-7z" fill="#505255"/>
<path transform="translate(1324,827)" d="m0 0h9l8 4 6 9 3 11 7-1-1 3-7 1-4-4-3-12-5-5-7-3-6-2z" fill="#ECBFAC"/>
<path transform="translate(1105,1321)" d="m0 0 8 1 30 11 21 8v2l-6-1-18-6v-2l-7-1-9-4-6-2-13-5z" fill="#EECDCA"/>
<path transform="translate(1375,1164)" d="m0 0h10l6 3 4 4v6l-3-4-3-3-4-2h-8l-5 3-2 5-1 9-3-1v-11l4-6z" fill="#EACBBE"/>
<path transform="translate(840,1138)" d="m0 0 4 1-2 2-8 2-15 4-17 5-18 5-3-1 2-2 22-6 25-7z" fill="#E3D8D7"/>
<path transform="translate(1067,801)" d="m0 0 6 1 2-1 4 5-13 8-4-2-1-4z" fill="#797879"/>
<path transform="translate(1326,1214)" d="m0 0 3 1 2-1 2 2-12 6-6 12-2 7-1 13-2-2v-14l1-2 1-7 3-5 2-1 2-4 3-1z" fill="#E9C5B8"/>
<path transform="translate(921,1107)" d="m0 0 4 1-4 2h-3l1 2 2 2-9 4-10 1 3-3h6v-3l-7 2h-12l3-2 12-3z" fill="#45474C"/>
<path transform="translate(1423,1080)" d="m0 0 8 1 4 4 4 8 5 18v3h-2l-2-4-3-15-6-10-5-1h-7l-8 2-1-2 7-3z" fill="#F5BAB3"/>
<path transform="translate(792,1266)" d="m0 0h6l1 4-7 4-12 3h-3v-2l-3-1 2-1-1-2 7 1v-2l4 1v-2l2-2z" fill="#42454A"/>
<path transform="translate(1233,1356)" d="m0 0 5 1 10 1 3 3-1 4-5 1-9-2-4-3-2-3z" fill="#42454A"/>
<path transform="translate(1464,1185)" d="m0 0 2 4 6 18 3 14v10l-3 4-1-3 1-6v-8l-2-4-1-4-6-19z" fill="#EAC5B6"/>
<path transform="translate(660,953)" d="m0 0 5 5-1 4 4 2-1 3 1 3-1 3 2 3h3l1 6-1 5-3 1-8-26z" fill="#4B4D51"/>
<path transform="translate(1461,866)" d="m0 0 1 4-7 21-5 3-2 2-1-3 3-1 2-9 4-8 1-5 1-3z" fill="#45484D"/>
<path transform="translate(670,990)" d="m0 0h5l3 9-1 4 4 11 3 2v2h-5v-2h-2l-6-20z" fill="#47494E"/>
<path transform="translate(1298,889)" d="m0 0h21l34 2v1l-6 1h-19l-31-2z" fill="#EBC0AE"/>
<path transform="translate(1374,794)" d="m0 0 9 1 2 2 4 2 1 3h2v2l-3 1-5-5-2-1h-8l-6 3-2 5-1 8h-2v-12l4-5z" fill="#ECCDC6"/>
<path transform="translate(1452,736)" d="m0 0h19l7 3 3 4v17l-1 2h-2l1-5-1-13-2-4-32-2v-1z" fill="#ECBEAC"/>
<path transform="translate(1412,636)" d="m0 0 5 3 4-2 1 3-7 10-5 1-2-3 1-6z" fill="#5E5E60"/>
<path transform="translate(752,1200)" d="m0 0m-4 1 4 1-8 4-23 5-5 1v2l-26 5 1-2 29-8 26-7z" fill="#515355"/>
<path transform="translate(600,1239)" d="m0 0m-2 1 4 2-7 3-17 4h-8l-7-6v-2h2l2 3 4 1h9l10-3z" fill="#E5D8D7"/>
<path transform="translate(856,1023)" d="m0 0h21l-2 2 2 1v2l-3 1h-12l-2-1-5-1z" fill="#42454A"/>
<path transform="translate(1070,950)" d="m0 0 26 1 4 3-1 1h-19l-11-1v-3z" fill="#42454A"/>
<path transform="translate(1317,1092)" d="m0 0 6 1-5 4-4 4-6 3-4-1v3l-5-2v-2z" fill="#4B4E52"/>
<path transform="translate(1270,1236)" d="m0 0 1 2 4-1 3 5-2 4-3 3-6-2-2-5 2-4z" fill="#42454A"/>
<path transform="translate(1152,1124)" d="m0 0h10l8 1h14l5-1v3l-4 2h-13l-20-3z" fill="#EBC4B4"/>
<path transform="translate(1095,1019)" d="m0 0 4 2 5 2 4 5 1 3v10l-3 6h-1v-6l1-7-3-6v-2l-5-2-7-1-4 1-2-2 4-2 6 1z" fill="#EAC6B8"/>
<path transform="translate(634,865)" d="m0 0 5 3 2 5h1l2 8v5l-2 5-2-2-6-20z" fill="#4A4B50"/>
<path transform="translate(637,1186)" d="m0 0 6 1 5 1-4 3-14 5-5-1 1-4 8-2v-2z" fill="#42454A"/>
<path transform="translate(1011,1287)" d="m0 0 5 2 5 1-4 8-1 3h-3v-2l-3-1-1-6 1-4z" fill="#42454A"/>
<path transform="translate(1194,1206)" d="m0 0h1l2 9 3 6 1 4 1 8 2 3 1 1 2 9 1 5-3-1-3-10-6-19-2-7z" fill="#F1B9AC"/>
<path transform="translate(1131,1057)" d="m0 0h10l9 4 6 9 1 9-2-1-3-9-5-6-5-2-12-1z" fill="#EBC2B4"/>
<path transform="translate(1365,1176)" d="m0 0h3l1 9 6 8 9 2h3l1 3-5 1-9-3-6-5-3-6z" fill="#ECC0AF"/>
<path transform="translate(1312,818)" d="m0 0 2 1-3 5-5 5-4 8-2 9-2 2v-12l5-10 2-3 3-1z" fill="#F0BFB2"/>
<path transform="translate(904,1178)" d="m0 0h4l5 13 2 3v5l-4-1-3-6-3-8z" fill="#42454A"/>
<path transform="translate(690,1170)" d="m0 0h3v2h5l-3 2-5 1-4 1-4-1-1 2v-2h-3v3l-4 2-6-2 1-2z" fill="#515355"/>
<path transform="translate(759,1049)" d="m0 0m-3 1h3v2l-12 3h-3v2l-6 2-10 2h-4l-1 2-3-2 10-4 22-6z" fill="#515355"/>
<path transform="translate(1280,728)" d="m0 0 21 1 9 1v1l-16 1h-18l-8-1v-1z" fill="#ECC4B8"/>
<path transform="translate(600,1419)" d="m0 0h3l3 9-2 4h-2l1 4-3 1v-3l-2-1v-7z" fill="#494B50"/>
<path transform="translate(1332,1225)" d="m0 0h3l-2 4-5 5-3 4v16l-3 3-1-3 1-15 3-7 4-5z" fill="#EDBBA9"/>
<path transform="translate(591,718)" d="m0 0 4 5 2 7h3l2 4h-2l-2 7-2-1-5-16z" fill="#4B4D51"/>
<path transform="translate(1412,1460)" d="m0 0h2l6 10v5h-24v-1h16v-2h4l-4-10z" fill="#44474C"/>
<path transform="translate(955,1319)" d="m0 0h1l4 25h-2l2 8-1 4-4-18v-11h-1v-7z" fill="#EBBDAA"/>
<path transform="translate(1218,1108)" d="m0 0 3 1-1 2-26 13-4-1 4-3 6-2 9-6z" fill="#E9C8B9"/>
<path transform="translate(1323,814)" d="m0 0h7l10 3 7 5 1 3-5-2-8-4-12-2h-6l1-2z" fill="#E9C1AE"/>
<path transform="translate(1198,1239)" d="m0 0 2 1 4 11 2 12 1 4v2h-2l-2-2v-10l-2-1-2-4z" fill="#42454A"/>
<path transform="translate(1255,1231)" d="m0 0 1 4 2 9 4 6 7 3v2l-9-2-5-6-2-9z" fill="#EEBEAE"/>
<path transform="translate(1455,1153)" d="m0 0 2 3 6 21v5l-2 1-6-20-1-9z" fill="#ECC1B1"/>
<path transform="translate(881,1127)" d="m0 0h2v2l-10 4-12 3-6 1v-3z" fill="#E4D7D6"/>
<path transform="translate(1105,1066)" d="m0 0h2l1 10 5 1 4-8h3l-3 6-2 5h-9l-3-7z" fill="#E8C6B6"/>
<path transform="translate(1390,733)" d="m0 0h18l14 1v1l-7 1h-17l-15-1v-1z" fill="#EBC1B0"/>
<path transform="translate(622,612)" d="m0 0 2 3-1 8-3 7-5 5-5 3-3 1h-11l-3-2h10l10-3 5-6 3-6z" fill="#F7B8B3"/>
<path transform="translate(1341,1222)" d="m0 0 13 1 6 4 5 4-4 1-7-5-3-1-12-1-1-2z" fill="#ECC1B2"/>
<path transform="translate(1235,886)" d="m0 0h22l14 1-4 2h-14l-18-1z" fill="#E9C2AF"/>
<path transform="translate(1264,1222)" d="m0 0h10l-1 3-8 1-5 4-2 4-1 7h-1l-1-7 2-6 2-1v-2z" fill="#EAC8BD"/>
<path transform="translate(916,1117)" d="m0 0 4 1-2 3-8 2-10 1-1 1h-6l2-2z" fill="#E5D7D6"/>
<path transform="translate(1293,1145)" d="m0 0h3l-1 3-17 9-4 1 1-4z" fill="#EBCABD"/>
<path transform="translate(1070,956)" d="m0 0h13l12 1 3 2-3 1h-9l-16-2z" fill="#EBC5B7"/>
<path transform="translate(832,1233)" d="m0 0 2 1-2 10 1 2 5-1 5-4v3l-6 5-7-1-1-2v-7z" fill="#EDBCAA"/>
<path transform="translate(835,1176)" d="m0 0 3 1-19 6-14 3h-4l1-3 8-1z" fill="#E6D4D2"/>
<path transform="translate(1240,972)" d="m0 0h23l3 2-1 1h-16l-10-1z" fill="#EAC4B5"/>
<path transform="translate(648,1227)" d="m0 0 4 1-9 3-18 5h-4v-2l14-4 6-2z" fill="#E6D5D3"/>
<path transform="translate(897,1157)" d="m0 0m-3 1 4 1v2l-22 6h-5l4-3 13-4z" fill="#E4D9D7"/>
<path transform="translate(776,1156)" d="m0 0 4 1-10 4-20 5-4-1 15-5z" fill="#E4D8D6"/>
<path transform="translate(1291,804)" d="m0 0h3l1 7-3 3-6-1 1-5z" fill="#42454A"/>
<path transform="translate(745,1210)" d="m0 0m-4 1h4v2l-25 7-9 2 1-2 21-7z" fill="#515355"/>
<path transform="translate(837,1129)" d="m0 0m-3 1 3 1-10 4-9 3-1 1-12 1 3-3 19-5z" fill="#515355"/>
<path transform="translate(612,627)" d="m0 0v3l-3 1-1 3-8 1-4-2 1-3 12-2z" fill="#42454A"/>
<path transform="translate(599,1441)" d="m0 0h2v6l-3 4h-5l-1-4 2-4z" fill="#4F5155"/>
<path transform="translate(1419,1341)" d="m0 0m-2 1h2v9l-4 1-1 2-3-1-1-4 4-5z" fill="#5D5E60"/>
<path transform="translate(991,969)" d="m0 0h1v10l1 8-1 9-2 6h-1v-14z" fill="#696869"/>
<path transform="translate(599,605)" d="m0 0 6 1v3l-9 3-3 2-1 3h-2l1-6 6-5z" fill="#E7C4B1"/>
<path transform="translate(1105,1321)" d="m0 0 8 1 27 10-3 1-18-5-14-6z" fill="#E8D0CE"/>
<path transform="translate(1361,1214)" d="m0 0 4 2 5 5 3 7-3 4-3-1 1-6-1-4h-2v-2l-4-2z" fill="#EAC6B6"/>
<path transform="translate(1217,963)" d="m0 0h13l2 1v3h-16l-2-2z" fill="#42454A"/>
<path transform="translate(1298,801)" d="m0 0 2 3v6l-1 3-4 6-5 4h-8v-1l9-2v-2h2l3-6 1-10z" fill="#EAC1AC"/>
<path transform="translate(822,1269)" d="m0 0 2 2-1 9-2 5-3-2 1-11z" fill="#42454A"/>
<path transform="translate(1423,1267)" d="m0 0 7 2-4 3-7 4h-5l1-4 2-1v2l2-1-1-2z" fill="#4B4E52"/>
<path transform="translate(1116,1050)" d="m0 0 3 1-7 10-4 8-2-3 2-6 6-8z" fill="#ECBEAD"/>
<path transform="translate(1440,1349)" d="m0 0h3l5 8v3h-5l-4-6z" fill="#4B4B50"/>
<path transform="translate(1257,1102)" d="m0 0h2l-2 9-3 6-5-1-6-3 3-2 7 2 2-6z" fill="#EEC1B5"/>
<path transform="translate(770,1054)" d="m0 0h3v2l-27 8-5 1 3-3 4-2 7-2z" fill="#515355"/>
<path transform="translate(1271,974)" d="m0 0h11l7 3 4 4v3l-4-2-5-4-4-2h-12z" fill="#ECBBA9"/>
<path transform="translate(1403,612)" d="m0 0 6 1 4 2-1 2-6 1-1 3-4-2-1-3z" fill="#827F80"/>
<path transform="translate(607,1409)" d="m0 0 4 1-2 10-2 2-3-2-1-6h3z" fill="#42454A"/>
<path transform="translate(646,1192)" d="m0 0h5l-4 3-18 5h-6l1-2 19-5z" fill="#E4D7D6"/>
<path transform="translate(1258,1120)" d="m0 0 5 2 1 4h-3v2l-7-1-2-3z" fill="#42454A"/>
<path transform="translate(1234,1342)" d="m0 0 3 1 6 7 11-1-1 3-7 2-7-3-5-7z" fill="#E9C2B1"/>
<path transform="translate(1316,1133)" d="m0 0 3 1-3 3-15 7-2-2 12-7z" fill="#EACABE"/>
<path transform="translate(1198,780)" d="m0 0h2l-1 9-3 9-3-3 3-13z" fill="#42454A"/>
<path transform="translate(600,750)" d="m0 0 3 1-1 4h2l1 4 2 1v7l1 4-2 1-6-18z" fill="#47494E"/>
<path transform="translate(1e3 1265)" d="m0 0 3 1 4 11-1 4v-2l-3-1-4-8z" fill="#46494D"/>
<path transform="translate(1147,1131)" d="m0 0 5 2 3 3-20-2-8-1v-1z" fill="#6D6C6E"/>
<path transform="translate(665,972)" d="m0 0 4 4h3l1 6-1 5-3 1-4-13z" fill="#44474B"/>
<path transform="translate(1167,965)" d="m0 0h19l1 2-5 1h-11l-10-1v-1z" fill="#EAC5B6"/>
<path transform="translate(1178,1053)" d="m0 0 4 2 5 3h7l5-4h2v3l-7 4h-7l-9-5z" fill="#F6C4BD"/>
<path transform="translate(568,642)" d="m0 0h3l1 7 3 4 1 5h-2l-1 2-4-9z" fill="#504F53"/>
<path transform="translate(589,560)" d="m0 0h10l10 4 7 7-1 2-8-7-10-4-13 1 2-2z" fill="#F7B8B3"/>
<path transform="translate(1200,1273)" d="m0 0 2 4 1 3h2l2 8-1 4-6-9-1-7z" fill="#F3C9C4"/>
<path transform="translate(1042,946)" d="m0 0 21 1v1h-7l-1 2-5-1-5 2-5-1v-3z" fill="#42454A"/>
<path transform="translate(1223,1106)" d="m0 0h11l10 4-1 2-5-1-5-2h-11l-1-2z" fill="#ECBEAC"/>
<path transform="translate(1345,831)" d="m0 0 4 1 3 3 2 6v7h-2l-4-11z" fill="#42454A"/>
<path transform="translate(692,801)" d="m0 0 3 1 3 12-3 1-4-6v-6z" fill="#4A4B4F"/>
<path transform="translate(563,1241)" d="m0 0h2l2 3 4 1h10v2l2 1-5 1h-8l-7-6z" fill="#E4D5D4"/>
<path transform="translate(1315,1224)" d="m0 0 1 2-3 8 1 3-2 14-1 3-1-2v-14l1-2 1-7z" fill="#E9BBA4"/>
<path transform="translate(1377,1412)" d="m0 0 4 2 7 8 2 4-4-2-10-9z" fill="#48494E"/>
<path transform="translate(682,1390)" d="m0 0h2l-3 9-7 14h-2l2-6z" fill="#EBBEAC"/>
<path transform="translate(1e3 1058)" d="m0 0 1 3-6 20h-2l1-8 4-13z" fill="#515355"/>
<path transform="translate(999,1011)" d="m0 0h1v7h2v6l-3 5h-2l1-15z" fill="#E2BD9D"/>
<path transform="translate(646,892)" d="m0 0 2 1 1 5h-3l2 4v4h-3l-2-7v-5z" fill="#46494D"/>
<path transform="translate(688,1445)" d="m0 0 5 2 1 1 8 1v1l-16 1-2-4z" fill="#5B5C60"/>
<path transform="translate(1371,1166)" d="m0 0 2 1-2 3-2 15-3-1v-11l4-6z" fill="#EACBBF"/>
<path transform="translate(967,1143)" d="m0 0h2l2 6-5 5-3-2v-2h2l-1-5h3z" fill="#45484D"/>
<path transform="translate(1180,1032)" d="m0 0 3 1-1 2h-2l-2 5v9l1 4-2 2-2-5v-13l2-2z" fill="#EFC2B8"/>
<path transform="translate(1487,757)" d="m0 0 3 1-1 9-2 6-2-1v-7z" fill="#4C4F53"/>
<path transform="translate(655,1047)" d="m0 0h1v23l-2-3-1-14z" fill="#757070"/>
<path transform="translate(551,1217)" d="m0 0h1l1 19-2 4-2-9 1-11z" fill="#A39E9D"/>
<path transform="translate(1449,1132)" d="m0 0 2 4 4 12-1 5-2-3-4-13z" fill="#EAC0AF"/>
<path transform="translate(840,1138)" d="m0 0 4 1-2 2-8 2-6 2h-6l2-2z" fill="#E5D6D5"/>
<path transform="translate(888,1115)" d="m0 0 4 1-13 4h-3v2l-2 1h-8l1-2z" fill="#515355"/>
<path transform="translate(1175,836)" d="m0 0h1l1 6v9l-1 9-2 2v-15z" fill="#515355"/>
<path transform="translate(585,1104)" d="m0 0 2 1-18 18v-3l10-11z" fill="#6F6C6B"/>
<path transform="translate(1170,929)" d="m0 0 16 1 10 1-4 2-7 1-9-3-6-1z" fill="#777272"/>
<path transform="translate(637,1248)" d="m0 0h1l1 8v11l-2 1-1-5v-12z" fill="#EDBDAC"/>
<path transform="translate(849,1126)" d="m0 0h2l-1 6-13-1 1-2z" fill="#505254"/>
<path transform="translate(1070,805)" d="m0 0 5 1-2 1v3l-7 4-4-2 4-2z" fill="#868181"/>
<path transform="translate(1279,792)" d="m0 0h8v1l-7 2-5 5-2 3-1 6h-1v-8l3-5z" fill="#EEC9C6"/>
<path transform="translate(580,609)" d="m0 0h1l1 13 5 10 6 4-3 1-6-5-4-9z" fill="#F7B8B3"/>
<path transform="translate(1395,1172)" d="m0 0h1v16l-4 6-5 3 1-4 5-5 1-3z" fill="#F5BFB8"/>
<path transform="translate(1391,814)" d="m0 0 2 2-4 7-2 3h-11v-1h8l2-4z" fill="#ECC0AD"/>
<path transform="translate(996,1238)" d="m0 0 2 4 2 5v5l-3-1-1-4-2-1v-5z" fill="#4C4F53"/>
<path transform="translate(553,1174)" d="m0 0 3 3-1 8v9h-1l-2-11v-8z" fill="#57595B"/>
<path transform="translate(1270,1157)" d="m0 0h3l-2 4-11 5h-2l1-3z" fill="#EAC6B7"/>
<path transform="translate(1310,840)" d="m0 0 2 3h-2l1 4-2 4-7 1-2-1 1-2 6-1z" fill="#EDBDAC"/>
<path transform="translate(1434,629)" d="m0 0 6 2 4 3v4l-4-2-5-1z" fill="#474A4F"/>
<path transform="translate(609,621)" d="m0 0 1 3-3 3-8 1-6-3-1-3 4 1 3 2h8v-2h2z" fill="#EBCFC9"/>
<path transform="translate(1392,1430)" d="m0 0 5 5 6 9v2h-2l-6-6-2-6z" fill="#44474B"/>
<path transform="translate(610,1372)" d="m0 0 2 2v3l4 2 1-3v5h-4l-2 2v-2h-2l-1 2v-6z" fill="#44474B"/>
<path transform="translate(1362,1300)" d="m0 0h3l-2 5-6 3-5-1 3-3 4-1z" fill="#43464B"/>
<path transform="translate(1385,1165)" d="m0 0 5 1 5 5v6l-3-4-3-3-6-3z" fill="#EBC6B9"/>
<path transform="translate(882,1026)" d="m0 0h6l5 6-11-1-1-3z" fill="#42454A"/>
<path transform="translate(1312,818)" d="m0 0 2 1-3 5-8 6-3 3 2-5 3-5 3-1z" fill="#E9BDA6"/>
<path transform="translate(1367,798)" d="m0 0 2 1-2 5-2 11h-2v-12z" fill="#ECC2B1"/>
<path transform="translate(594,1398)" d="m0 0h2l-2 6-5 7-2-1 1-4z" fill="#EEC0AF"/>
<path transform="translate(1236,1369)" d="m0 0 9 2 6 2v2l-8-1-9-3z" fill="#EDD2CF"/>
<path transform="translate(615,1235)" d="m0 0h4v2l-12 4h-4v-2z" fill="#E2D8D7"/>
<path transform="translate(1187,1028)" d="m0 0 7 1-2 2-10 2-4 1 1-3z" fill="#E9C0AA"/>
<path transform="translate(1346,844)" d="m0 0h2l2 7 7-1-1 3-7 1-3-2z" fill="#EEC1B2"/>
<path transform="translate(1269,801)" d="m0 0 2 3 3 10 5 5-1 2-6-5-2-3z" fill="#F5C2BA"/>
<path transform="translate(1205,1241)" d="m0 0 3 4 1 8-1 2h2l2 9-2-4h-2l-2-9h2l-3-7z" fill="#E8BCA4"/>
<path transform="translate(1332,1225)" d="m0 0h3l-2 4-5 5-3 1 1-5z" fill="#EDC7BA"/>
<path transform="translate(1135,1121)" d="m0 0 15 2-2 2h-11l-3-2z" fill="#E9C3B1"/>
<path transform="translate(1444,1114)" d="m0 0 2 3 3 11v4h-2l-4-14z" fill="#ECC0B0"/>
<path transform="translate(692,1070)" d="m0 0 4 1 2 3-2 1h-10l3-4z" fill="#42454A"/>
<path transform="translate(1081,1026)" d="m0 0 2 1-1 5v15l-2-1-1-6v-10z" fill="#EDBDAC"/>
<path transform="translate(555,577)" d="m0 0 2 1-1 9-1 1-1 8h-1l-1-8z" fill="#817878"/>
<path transform="translate(1479,1210)" d="m0 0 3 1 2 7v9l-2-1z" fill="#43464B"/>
<path transform="translate(1247,1169)" d="m0 0h3l-1 3-5 2-6 4h-2v-3z" fill="#EBC5B8"/>
<path transform="translate(968,1124)" d="m0 0 2 1v10l-1 2h-3l-1-3 2-3z" fill="#E7D7D6"/>
<path transform="translate(1201,932)" d="m0 0 19 1-3 3-16-2z" fill="#696768"/>
<path transform="translate(574,1426)" d="m0 0 2 1v2h-2l-2 4-8 6-3-1 8-6z" fill="#EDBBAB"/>
<path transform="translate(1085,1303)" d="m0 0 6 1 13 5v2l-6-1-3-2-7-1z" fill="#44474C"/>
<path transform="translate(881,1127)" d="m0 0h2v2l-10 4-4-1v-2z" fill="#E2D9D8"/>
<path transform="translate(1447,880)" d="m0 0 1 4-4 8-4 4-2-1 4-5 2-4z" fill="#ECBFB1"/>
<path transform="translate(1202,1193)" d="m0 0h2l-2 4-5 9-2-1 1-5z" fill="#ECCAC0"/>
<path transform="translate(905,1192)" d="m0 0 6 8 3 1v2l-6-1-4-6z" fill="#EBC4B5"/>
<path transform="translate(866,1167)" d="m0 0 4 1-15 5-4-1 9-4z" fill="#E6D4D2"/>
<path transform="translate(1126,1120)" d="m0 0 9 1-1 3-15-1 2-2z" fill="#E9CDC1"/>
<path transform="translate(1265,896)" d="m0 0h11l2 3-21-1v-1z" fill="#7F7A7B"/>
<path transform="translate(910,1154)" d="m0 0 4 2-8 3-5 1-2-2z" fill="#E5D6D5"/>
<path transform="translate(1108,1031)" d="m0 0h1v10l-3 6h-1v-6z" fill="#ECBEAA"/>
<path transform="translate(1321,828)" d="m0 0h3v2l-6 4h-2l-2 4h-2l2-5z" fill="#ECBFAF"/>
<path transform="translate(832,1233)" d="m0 0 2 1-2 11-3 1v-7z" fill="#E8C6B7"/>
<path transform="translate(775,1192)" d="m0 0 3 1-7 3-8 1v-2z" fill="#E7D5D3"/>
<path transform="translate(676,1174)" d="m0 0h2v4l-4 2-6-2 1-2z" fill="#505254"/>
<path transform="translate(940,1145)" d="m0 0m-2 1h2v2l3 1-7 2-6-1 1-2z" fill="#E1DBDA"/>
<path transform="translate(965,1135)" d="m0 0 2 4-3 4-8-2 8-5z" fill="#E1DBDA"/>
<path transform="translate(1167,1079)" d="m0 0h2l-2 5-2 1h-7l-2-2v-3h2l1 2 7-1z" fill="#EAC3B1"/>
<path transform="translate(1268,804)" d="m0 0 2 2 1 7 5 6 2 1v2l-5-2-4-6z" fill="#E1BD9C"/>
<path transform="translate(1490,746)" d="m0 0 2 2-1 10-4-1v-4l2-2z" fill="#5D5D61"/>
<path transform="translate(1031,1376)" d="m0 0 4 1-7 3-9 1 1-2z" fill="#EDD0CD"/>
<path transform="translate(796,1271)" d="m0 0m-1 1m-3 1h3v2l-12 3h-5l2-2z" fill="#515355"/>
<path transform="translate(1203,1236)" d="m0 0 2 1 2 9 1 5-3-1-3-10-1-3z" fill="#F3BFB5"/>
<path transform="translate(1472,1222)" d="m0 0h3v9l-3 4-1-3 1-6z" fill="#F2BAAF"/>
<path transform="translate(1318,1222)" d="m0 0h2l-1 4-4 8-3 1 3-9z" fill="#F2C5C1"/>
<path transform="translate(1469,1207)" d="m0 0 1 2h2l3 13h-3l-1-5z" fill="#EBC1B1"/>
<path transform="translate(1194,1206)" d="m0 0h1l2 9 3 6-1 3-3-3-2-7z" fill="#EDBEB0"/>
<path transform="translate(1118,1068)" d="m0 0 2 1-3 6-2 5-7-1v-1l5-1 4-8z" fill="#ECC2B6"/>
<path transform="translate(997,1019)" d="m0 0 1 4-1 6h2l1-4 1 2-3 7-2-1v-13z" fill="#F7BBB6"/>
<path transform="translate(1297,1011)" d="m0 0 1 4-3 7-3-2 3-7z" fill="#494B50"/>
<path transform="translate(1374,794)" d="m0 0 9 1 2 2-16 1 3-3z" fill="#E8C0A7"/>
<path transform="translate(1050,1301)" d="m0 0 8 1 6 2v2l-7-1-7-3z" fill="#EDD0CD"/>
<path transform="translate(1028,1296)" d="m0 0 10 1 1 2h-15v-2z" fill="#EFCDC9"/>
<path transform="translate(1e3 1255)" d="m0 0 2 1 2 10-3-1-2-8-2-1z" fill="#4E5155"/>
<path transform="translate(1312,1241)" d="m0 0h1l1 10 4 5-4 1-2-1-1-7z" fill="#E9CDC5"/>
<path transform="translate(868,1232)" d="m0 0 4 2-1 4h-6l-1-2h3l-1-3z" fill="#42454A"/>
<path transform="translate(1458,1169)" d="m0 0 1 3 3 1 1 9-2 1-3-10z" fill="#E9C4B1"/>
<path transform="translate(622,823)" d="m0 0h2l3 10-2 3-3-8z" fill="#4D5054"/>
<path transform="translate(1319,816)" d="m0 0 13 1v1l-11 1-6 2-4-1 5-2h3z" fill="#EDCECB"/>
<path transform="translate(562,1216)" d="m0 0 3 1-3 4-1 6h-3l2-9z" fill="#E4D5D3"/>
<path transform="translate(729,1169)" d="m0 0 4 1-7 3-9 1 2-2z" fill="#E5D8D6"/>
<path transform="translate(1331,1125)" d="m0 0 3 1-2 2-5 2-3 3h-2l-1-3z" fill="#EAC8BC"/>
<path transform="translate(1409,1085)" d="m0 0v3l-9 5-3-1 4-3z" fill="#F5BCB4"/>
<path transform="translate(1419,1071)" d="m0 0 10 1-1 2-11 1v-3z" fill="#5F5F61"/>
<path transform="translate(610,771)" d="m0 0 2 1v2h-2v2l4 1-1 2-6-1-1-6z" fill="#494C50"/>
<path transform="translate(1436,638)" d="m0 0 9 4-1 2-6-1-4-2v-2z" fill="#5B5B5E"/>
<path transform="translate(1007,1383)" d="m0 0h4v2l-9 2v5l-2-2 1-4z" fill="#EFD0CD"/>
<path transform="translate(1143,1156)" d="m0 0h2l-1 5-4 4-2-1 1-5 3-2z" fill="#42454A"/>
<path transform="translate(929,1115)" d="m0 0m-6 0 6 1-1 2-10 2 1-4z" fill="#DEDCDC"/>
<path transform="translate(1267,1102)" d="m0 0 1 4-2 7-3-1 1-6z" fill="#494C51"/>
<path transform="translate(1293,984)" d="m0 0h1v12l-1 2h-2l1-13z" fill="#EDBBAB"/>
<path transform="translate(1285,976)" d="m0 0 4 1 4 4v3l-4-2-4-3z" fill="#F4BAB1"/>
<path transform="translate(1352,1212)" d="m0 0 9 1 1 3-2 1-5-2-8-1v-1z" fill="#ECCDC6"/>
<path transform="translate(1201,1117)" d="m0 0 2 2-9 5-4-1 4-3 6-2z" fill="#EBC3B5"/>
<path transform="translate(1018,975)" d="m0 0h1v8l-4 4-1-3 2-6h2z" fill="#42454A"/>
<path transform="translate(1094,811)" d="m0 0 7 2-1 3-4 1-3-1z" fill="#6B6A6D"/>
<path transform="translate(1226,728)" d="m0 0h2v2l-8 5-2 3-2-1 3-5z" fill="#F2BBB0"/>
<path transform="translate(575,665)" d="m0 0 3 1 1 4-1 5-2-1z" fill="#45484C"/>
<path transform="translate(558,1394)" d="m0 0 2 1-10 10-1-3z" fill="#E8C2B3"/>
<path transform="translate(950,1297)" d="m0 0h2l1 12-2 1-1-3z" fill="#ECBDAA"/>
<path transform="translate(590,1242)" d="m0 0m-5 1h5v3l-9 1 1-3z" fill="#DFDBDA"/>
<path transform="translate(948,1156)" d="m0 0h4v2l-7 2-4 1-3-2z" fill="#EFBBAC"/>
<path transform="translate(1279,1152)" d="m0 0 5 1-4 3-6 2 1-4z" fill="#EAC6B7"/>
<path transform="translate(1306,1138)" d="m0 0 4 1-4 3-5 2-2-2z" fill="#ECC4B6"/>
<path transform="translate(844,1025)" d="m0 0 8 1-3 3h-7z" fill="#484B50"/>
<path transform="translate(1366,817)" d="m0 0 6 5v2l3 1-2 1-6-4-2-4z" fill="#EEBFAE"/>
<path transform="translate(1069,805)" d="m0 0m-5 1 4 1-2 4-5-1v-2z" fill="#484B50"/>
<path transform="translate(1298,801)" d="m0 0 2 3v6l-1 3-2 2v-13z" fill="#EDBBAA"/>
<path transform="translate(1441,699)" d="m0 0 12 1-2 2-9 1z" fill="#6C6B6C"/>
<path transform="translate(1406,617)" d="m0 0 3 1 1 5-2 2-4-3z" fill="#43464A"/>
<path transform="translate(599,1387)" d="m0 0h3l-2 6-3 5-2-1 2-5z" fill="#EFBBAC"/>
<path transform="translate(1026,1361)" d="m0 0h2v7l-6 1-1-2 4-2z" fill="#EAC4B4"/>
<path transform="translate(1234,1342)" d="m0 0 3 1 4 5-1 4-6-8z" fill="#EACABE"/>
<path transform="translate(764,1275)" d="m0 0 5 2-1 4h-2v-2h-2l-1 2v-5z" fill="#42454A"/>
<path transform="translate(1264,1222)" d="m0 0h10l-1 3h-7l-2-1z" fill="#E8D0C1"/>
<path transform="translate(1151,1066)" d="m0 0 4 2 2 5v6l-2-1-3-9z" fill="#ECBCA8"/>
<path transform="translate(1365,1067)" d="m0 0 4 2-1 2-9 1v-2z" fill="#44474C"/>
<path transform="translate(1125,1059)" d="m0 0h4v2l-6 3-2 3h-2l2-5z" fill="#EBC5B6"/>
<path transform="translate(1282,1052)" d="m0 0h2l-1 8-4-2 2-5z" fill="#43464A"/>
<path transform="translate(619,814)" d="m0 0 4 1-1 10-2-3z" fill="#55585C"/>
<path transform="translate(1068,775)" d="m0 0 3 1-2 1-1 8-3-3v-5z" fill="#898484"/>
<path transform="translate(1480,731)" d="m0 0 4 2 2 2-1 4-3-2v-2h-2z" fill="#494C50"/>
</svg>
